<svg width="351" height="361" viewBox="0 0 351 361" fill="none" xmlns="http://www.w3.org/2000/svg">
<g filter="url(#filter0_f)">
<rect x="105.5" y="106" width="140" height="149" fill="#1E0068" fill-opacity="0.08"/>
</g>
<rect x="236.12" y="221.776" width="121.24" height="158.14" rx="16" transform="rotate(-180 236.12 221.776)" fill="#8A96F4"/>
<rect x="235.725" y="221.38" width="120.45" height="157.349" rx="15.6047" transform="rotate(-180 235.725 221.38)" stroke="white" stroke-opacity="0.5" stroke-width="0.790698"/>
<g opacity="0.3" filter="url(#filter1_b)">
<rect x="124.986" y="77.0156" width="32.0312" height="31.8084" rx="15.9042" fill="white"/>
</g>
<path d="M141.145 87.0944L141.301 99.4381M141.301 99.4381L145.469 95.6034M141.301 99.4381L136.961 95.7114" stroke="white" stroke-width="1.26049" stroke-linecap="round"/>
<path d="M165.718 81.2741L165.718 87.8685L164.637 87.8685L164.637 81.2741L165.718 81.2741ZM169.776 82.555C170.187 82.555 170.554 82.6404 170.877 82.8112C171.206 82.982 171.462 83.235 171.646 83.5703C171.829 83.9056 171.921 84.3104 171.921 84.7848L171.921 87.8685L170.848 87.8685L170.848 84.9461C170.848 84.478 170.731 84.1206 170.497 83.8739C170.263 83.6209 169.944 83.4944 169.539 83.4944C169.134 83.4944 168.812 83.6209 168.571 83.8739C168.337 84.1206 168.22 84.478 168.22 84.9461L168.22 87.8685L167.139 87.8685L167.139 82.6404L168.22 82.6404L168.22 83.2382C168.397 83.0231 168.622 82.8555 168.894 82.7353C169.172 82.6151 169.466 82.555 169.776 82.555ZM172.94 85.2497C172.94 84.7121 173.047 84.2408 173.262 83.836C173.484 83.4248 173.787 83.1085 174.173 82.8871C174.559 82.6657 175.002 82.555 175.502 82.555C176.134 82.555 176.656 82.7069 177.067 83.0105C177.485 83.3078 177.766 83.7348 177.912 84.2914L176.745 84.2914C176.65 84.0321 176.498 83.8296 176.289 83.6842C176.081 83.5387 175.818 83.4659 175.502 83.4659C175.059 83.4659 174.705 83.6241 174.439 83.9403C174.18 84.2503 174.05 84.6868 174.05 85.2497C174.05 85.8127 174.18 86.2523 174.439 86.5686C174.705 86.8849 175.059 87.043 175.502 87.043C176.128 87.043 176.542 86.7679 176.745 86.2176L177.912 86.2176C177.76 86.7489 177.475 87.1727 177.058 87.489C176.64 87.7989 176.122 87.9539 175.502 87.9539C175.002 87.9539 174.559 87.8432 174.173 87.6218C173.787 87.3941 173.484 87.0778 173.262 86.673C173.047 86.2618 172.94 85.7874 172.94 85.2497ZM181.257 87.9539C180.764 87.9539 180.318 87.8432 179.92 87.6218C179.521 87.3941 179.208 87.0778 178.98 86.673C178.753 86.2618 178.639 85.7874 178.639 85.2497C178.639 84.7184 178.756 84.2471 178.99 83.836C179.224 83.4248 179.543 83.1085 179.948 82.8871C180.353 82.6657 180.805 82.555 181.305 82.555C181.805 82.555 182.257 82.6657 182.662 82.8871C183.067 83.1085 183.386 83.4248 183.62 83.836C183.854 84.2471 183.971 84.7184 183.971 85.2497C183.971 85.7811 183.851 86.2523 183.611 86.6635C183.37 87.0747 183.041 87.3941 182.624 87.6218C182.213 87.8432 181.757 87.9539 181.257 87.9539ZM181.257 87.0146C181.536 87.0146 181.795 86.9482 182.035 86.8153C182.282 86.6825 182.481 86.4832 182.633 86.2176C182.785 85.9519 182.861 85.6293 182.861 85.2497C182.861 84.8702 182.788 84.5508 182.643 84.2914C182.497 84.0257 182.304 83.8265 182.064 83.6936C181.824 83.5608 181.564 83.4944 181.286 83.4944C181.008 83.4944 180.748 83.5608 180.508 83.6936C180.274 83.8265 180.087 84.0257 179.948 84.2914C179.809 84.5508 179.739 84.8702 179.739 85.2497C179.739 85.8127 179.882 86.2492 180.166 86.5591C180.457 86.8628 180.821 87.0146 181.257 87.0146ZM191.369 82.555C191.78 82.555 192.147 82.6404 192.47 82.8112C192.799 82.982 193.055 83.235 193.238 83.5703C193.428 83.9056 193.523 84.3104 193.523 84.7848L193.523 87.8685L192.451 87.8685L192.451 84.9461C192.451 84.478 192.334 84.1206 192.1 83.8739C191.866 83.6209 191.546 83.4944 191.141 83.4944C190.737 83.4944 190.414 83.6209 190.174 83.8739C189.94 84.1206 189.823 84.478 189.823 84.9461L189.823 87.8685L188.75 87.8685L188.75 84.9461C188.75 84.478 188.633 84.1206 188.399 83.8739C188.165 83.6209 187.846 83.4944 187.441 83.4944C187.036 83.4944 186.714 83.6209 186.473 83.8739C186.239 84.1206 186.122 84.478 186.122 84.9461L186.122 87.8685L185.04 87.8685L185.04 82.6404L186.122 82.6404L186.122 83.2382C186.299 83.0231 186.524 82.8555 186.796 82.7353C187.068 82.6151 187.359 82.555 187.669 82.555C188.086 82.555 188.459 82.6436 188.788 82.8207C189.117 82.9978 189.37 83.254 189.547 83.5893C189.706 83.273 189.952 83.0231 190.287 82.8397C190.623 82.6499 190.983 82.555 191.369 82.555ZM199.691 85.1264C199.691 85.3225 199.678 85.4996 199.653 85.6577L195.659 85.6577C195.69 86.0752 195.845 86.4105 196.123 86.6635C196.402 86.9165 196.743 87.043 197.148 87.043C197.73 87.043 198.141 86.7995 198.382 86.3124L199.549 86.3124C199.391 86.7932 199.103 87.1885 198.685 87.4985C198.274 87.8021 197.762 87.9539 197.148 87.9539C196.648 87.9539 196.199 87.8432 195.801 87.6218C195.409 87.3941 195.099 87.0778 194.871 86.673C194.65 86.2618 194.539 85.7874 194.539 85.2497C194.539 84.7121 194.646 84.2408 194.861 83.836C195.083 83.4248 195.39 83.1085 195.782 82.8871C196.18 82.6657 196.636 82.555 197.148 82.555C197.642 82.555 198.081 82.6626 198.467 82.8776C198.853 83.0927 199.153 83.3963 199.368 83.7885C199.584 84.1744 199.691 84.6203 199.691 85.1264ZM198.562 84.7848C198.556 84.3863 198.413 84.0669 198.135 83.8265C197.857 83.5861 197.512 83.4659 197.101 83.4659C196.728 83.4659 196.408 83.5861 196.142 83.8265C195.877 84.0605 195.719 84.38 195.668 84.7848L198.562 84.7848Z" fill="white"/>
<path d="M166.732 100.941L167.338 95.6075L173.219 95.6075L173.219 97.3443L169.046 97.3443L168.786 99.6001C169.281 99.3359 169.807 99.2037 170.365 99.2037C171.364 99.2037 172.147 99.5136 172.714 100.133C173.281 100.753 173.565 101.62 173.565 102.735C173.565 103.413 173.42 104.02 173.132 104.558C172.849 105.092 172.44 105.507 171.907 105.805C171.374 106.098 170.744 106.245 170.019 106.245C169.385 106.245 168.796 106.118 168.253 105.863C167.71 105.603 167.28 105.241 166.963 104.775C166.651 104.309 166.485 103.778 166.466 103.182L168.527 103.182C168.57 103.619 168.722 103.96 168.981 104.205C169.245 104.446 169.589 104.566 170.012 104.566C170.482 104.566 170.845 104.397 171.1 104.061C171.354 103.72 171.482 103.24 171.482 102.62C171.482 102.024 171.335 101.568 171.042 101.25C170.749 100.933 170.333 100.775 169.795 100.775C169.3 100.775 168.899 100.905 168.592 101.164L168.39 101.351L166.732 100.941ZM175.525 108.731L174.437 108.162L174.696 107.693C175.018 107.107 175.184 106.524 175.193 105.942L175.193 104.328L176.952 104.328L176.945 105.769C176.94 106.303 176.805 106.841 176.541 107.384C176.277 107.926 175.938 108.376 175.525 108.731ZM184.151 95.4994L184.151 97.2146L183.95 97.2146C183.008 97.229 182.249 97.4741 181.672 97.9497C181.101 98.4254 180.757 99.086 180.642 99.9316C181.199 99.3647 181.903 99.0812 182.753 99.0812C183.666 99.0812 184.392 99.4079 184.93 100.061C185.468 100.715 185.737 101.575 185.737 102.641C185.737 103.324 185.588 103.941 185.29 104.494C184.997 105.046 184.579 105.476 184.036 105.784C183.498 106.091 182.888 106.245 182.206 106.245C181.101 106.245 180.207 105.86 179.525 105.092C178.847 104.323 178.508 103.297 178.508 102.014L178.508 101.265C178.508 100.126 178.722 99.122 179.15 98.2524C179.582 97.378 180.2 96.7029 181.002 96.2273C181.809 95.7468 182.744 95.5042 183.806 95.4994L184.151 95.4994ZM182.119 100.753C181.783 100.753 181.478 100.842 181.204 101.02C180.93 101.193 180.728 101.423 180.598 101.712L180.598 102.346C180.598 103.043 180.735 103.588 181.009 103.982C181.283 104.371 181.667 104.566 182.162 104.566C182.609 104.566 182.97 104.39 183.243 104.04C183.522 103.684 183.661 103.225 183.661 102.663C183.661 102.091 183.522 101.63 183.243 101.279C182.965 100.929 182.59 100.753 182.119 100.753ZM194.039 101.762C194.039 103.213 193.739 104.323 193.138 105.092C192.538 105.86 191.659 106.245 190.501 106.245C189.357 106.245 188.483 105.868 187.877 105.113C187.272 104.359 186.962 103.278 186.948 101.87L186.948 99.9388C186.948 98.4734 187.25 97.3612 187.856 96.602C188.466 95.8429 189.343 95.4634 190.486 95.4634C191.63 95.4634 192.504 95.8405 193.11 96.5948C193.715 97.3443 194.025 98.423 194.039 99.8307L194.039 101.762ZM191.957 99.6433C191.957 98.7737 191.836 98.1419 191.596 97.7479C191.361 97.3492 190.991 97.1498 190.486 97.1498C189.996 97.1498 189.633 97.3395 189.398 97.7191C189.167 98.0939 189.045 98.6824 189.031 99.4848L189.031 102.036C189.031 102.891 189.146 103.528 189.376 103.946C189.612 104.359 189.987 104.566 190.501 104.566C191.01 104.566 191.378 104.366 191.603 103.967C191.829 103.569 191.947 102.959 191.957 102.137L191.957 99.6433ZM202.515 101.762C202.515 103.213 202.214 104.323 201.614 105.092C201.013 105.86 200.134 106.245 198.976 106.245C197.833 106.245 196.958 105.868 196.353 105.113C195.747 104.359 195.437 103.278 195.423 101.87L195.423 99.9388C195.423 98.4734 195.726 97.3612 196.331 96.602C196.941 95.8429 197.818 95.4634 198.962 95.4634C200.105 95.4634 200.98 95.8405 201.585 96.5948C202.19 97.3443 202.5 98.423 202.515 99.8307L202.515 101.762ZM200.432 99.6433C200.432 98.7737 200.312 98.1419 200.071 97.7479C199.836 97.3492 199.466 97.1498 198.962 97.1498C198.472 97.1498 198.109 97.3395 197.873 97.7191C197.643 98.0939 197.52 98.6824 197.506 99.4848L197.506 102.036C197.506 102.891 197.621 103.528 197.852 103.946C198.087 104.359 198.462 104.566 198.976 104.566C199.485 104.566 199.853 104.366 200.079 103.967C200.304 103.569 200.422 102.959 200.432 102.137L200.432 99.6433Z" fill="white"/>
<path d="M129.334 144.905L129.967 146.212L131.414 146.405L130.353 147.44L130.584 148.882L129.295 148.215L127.99 148.912L128.255 147.465L127.217 146.455L128.67 146.227L129.334 144.905Z" fill="white"/>
<path d="M136.744 144.94L137.377 146.246L138.824 146.44L137.763 147.475L137.993 148.916L136.705 148.25L135.4 148.947L135.664 147.5L134.627 146.489L136.08 146.262L136.744 144.94Z" fill="white"/>
<path d="M144.153 144.975L144.786 146.281L146.233 146.475L145.172 147.51L145.403 148.951L144.114 148.285L142.809 148.982L143.073 147.535L142.036 146.524L143.489 146.297L144.153 144.975Z" fill="white"/>
<path d="M151.563 145.01L152.195 146.316L153.643 146.51L152.582 147.545L152.812 148.986L151.523 148.32L150.218 149.017L150.483 147.57L149.446 146.559L150.899 146.332L151.563 145.01Z" fill="white"/>
<path d="M164.188 145.138L161.009 145.138L161.009 147.026C161.142 146.849 161.338 146.7 161.597 146.58C161.863 146.46 162.144 146.4 162.442 146.4C162.973 146.4 163.403 146.513 163.732 146.741C164.067 146.969 164.305 147.257 164.444 147.605C164.589 147.953 164.662 148.319 164.662 148.705C164.662 149.173 164.57 149.591 164.387 149.958C164.21 150.318 163.941 150.603 163.58 150.812C163.226 151.02 162.79 151.125 162.271 151.125C161.581 151.125 161.028 150.954 160.61 150.612C160.193 150.271 159.943 149.819 159.861 149.256L160.914 149.256C160.984 149.553 161.139 149.79 161.379 149.967C161.619 150.138 161.92 150.223 162.28 150.223C162.73 150.223 163.065 150.087 163.286 149.815C163.514 149.543 163.628 149.183 163.628 148.734C163.628 148.278 163.514 147.93 163.286 147.69C163.058 147.443 162.723 147.32 162.28 147.32C161.97 147.32 161.708 147.399 161.493 147.557C161.284 147.709 161.132 147.918 161.037 148.183L160.013 148.183L160.013 144.189L164.188 144.189L164.188 145.138ZM165.788 147.576C165.788 146.482 165.971 145.628 166.338 145.014C166.712 144.394 167.35 144.084 168.255 144.084C169.16 144.084 169.795 144.394 170.162 145.014C170.535 145.628 170.722 146.482 170.722 147.576C170.722 148.683 170.535 149.55 170.162 150.176C169.795 150.796 169.16 151.106 168.255 151.106C167.35 151.106 166.712 150.796 166.338 150.176C165.971 149.55 165.788 148.683 165.788 147.576ZM169.659 147.576C169.659 147.064 169.624 146.63 169.555 146.276C169.492 145.922 169.359 145.634 169.156 145.413C168.954 145.185 168.654 145.071 168.255 145.071C167.856 145.071 167.556 145.185 167.354 145.413C167.151 145.634 167.015 145.922 166.946 146.276C166.882 146.63 166.851 147.064 166.851 147.576C166.851 148.108 166.882 148.553 166.946 148.914C167.009 149.275 167.142 149.566 167.344 149.787C167.553 150.008 167.856 150.119 168.255 150.119C168.654 150.119 168.954 150.008 169.156 149.787C169.365 149.566 169.501 149.275 169.564 148.914C169.628 148.553 169.659 148.108 169.659 147.576ZM173.034 147.51C172.376 147.181 172.047 146.662 172.047 145.954C172.047 145.612 172.132 145.299 172.303 145.014C172.474 144.73 172.73 144.505 173.072 144.341C173.413 144.17 173.831 144.084 174.324 144.084C174.811 144.084 175.225 144.17 175.567 144.341C175.915 144.505 176.174 144.73 176.345 145.014C176.516 145.299 176.601 145.612 176.601 145.954C176.601 146.308 176.509 146.621 176.326 146.893C176.149 147.159 175.912 147.364 175.614 147.51C175.975 147.643 176.26 147.861 176.468 148.164C176.677 148.462 176.781 148.813 176.781 149.218C176.781 149.629 176.677 149.993 176.468 150.309C176.26 150.625 175.969 150.869 175.595 151.039C175.222 151.21 174.798 151.296 174.324 151.296C173.85 151.296 173.426 151.21 173.053 151.039C172.686 150.869 172.398 150.625 172.189 150.309C171.98 149.993 171.876 149.629 171.876 149.218C171.876 148.806 171.98 148.452 172.189 148.155C172.398 147.858 172.679 147.643 173.034 147.51ZM175.567 146.086C175.567 145.732 175.456 145.46 175.235 145.27C175.013 145.081 174.71 144.986 174.324 144.986C173.944 144.986 173.644 145.081 173.423 145.27C173.201 145.46 173.091 145.735 173.091 146.096C173.091 146.412 173.204 146.672 173.432 146.874C173.666 147.07 173.963 147.168 174.324 147.168C174.685 147.168 174.982 147.067 175.216 146.865C175.45 146.662 175.567 146.403 175.567 146.086ZM174.324 147.984C173.907 147.984 173.565 148.089 173.299 148.297C173.04 148.5 172.91 148.794 172.91 149.18C172.91 149.54 173.037 149.834 173.29 150.062C173.543 150.284 173.888 150.394 174.324 150.394C174.754 150.394 175.093 150.28 175.339 150.053C175.592 149.825 175.719 149.534 175.719 149.18C175.719 148.8 175.589 148.506 175.33 148.297C175.077 148.089 174.741 147.984 174.324 147.984ZM177.917 147.576C177.917 146.482 178.101 145.628 178.468 145.014C178.841 144.394 179.48 144.084 180.384 144.084C181.289 144.084 181.924 144.394 182.291 145.014C182.665 145.628 182.851 146.482 182.851 147.576C182.851 148.683 182.665 149.55 182.291 150.176C181.924 150.796 181.289 151.106 180.384 151.106C179.48 151.106 178.841 150.796 178.468 150.176C178.101 149.55 177.917 148.683 177.917 147.576ZM181.788 147.576C181.788 147.064 181.754 146.63 181.684 146.276C181.621 145.922 181.488 145.634 181.286 145.413C181.083 145.185 180.783 145.071 180.384 145.071C179.986 145.071 179.685 145.185 179.483 145.413C179.28 145.634 179.144 145.922 179.075 146.276C179.012 146.63 178.98 147.064 178.98 147.576C178.98 148.108 179.012 148.553 179.075 148.914C179.138 149.275 179.271 149.566 179.473 149.787C179.682 150.008 179.986 150.119 180.384 150.119C180.783 150.119 181.083 150.008 181.286 149.787C181.494 149.566 181.63 149.275 181.694 148.914C181.757 148.553 181.788 148.108 181.788 147.576Z" fill="white"/>
<path d="M137.793 166.569C137.793 167.296 137.612 167.941 137.248 168.504C136.884 169.067 136.383 169.516 135.745 169.853C136.472 170.203 137.049 170.687 137.474 171.304C137.9 171.915 138.113 172.636 138.113 173.467C138.113 174.798 137.66 175.852 136.754 176.627C135.848 177.396 134.616 177.78 133.057 177.78C131.499 177.78 130.264 177.393 129.351 176.617C128.438 175.841 127.982 174.791 127.982 173.467C127.982 172.636 128.195 171.912 128.62 171.294C129.046 170.676 129.619 170.196 130.339 169.853C129.701 169.516 129.2 169.067 128.836 168.504C128.479 167.941 128.301 167.296 128.301 166.569C128.301 165.292 128.726 164.276 129.578 163.521C130.429 162.759 131.585 162.378 133.047 162.378C134.502 162.378 135.655 162.756 136.506 163.511C137.364 164.259 137.793 165.278 137.793 166.569ZM135.127 173.25C135.127 172.598 134.938 172.077 134.561 171.685C134.183 171.294 133.675 171.099 133.037 171.099C132.405 171.099 131.901 171.294 131.523 171.685C131.146 172.07 130.957 172.591 130.957 173.25C130.957 173.889 131.143 174.403 131.513 174.795C131.884 175.186 132.399 175.382 133.057 175.382C133.703 175.382 134.207 175.193 134.571 174.815C134.942 174.438 135.127 173.916 135.127 173.25ZM134.818 166.713C134.818 166.129 134.664 165.663 134.355 165.312C134.046 164.956 133.61 164.777 133.047 164.777C132.491 164.777 132.059 164.949 131.75 165.292C131.441 165.635 131.287 166.109 131.287 166.713C131.287 167.31 131.441 167.79 131.75 168.154C132.059 168.518 132.495 168.7 133.057 168.7C133.62 168.7 134.053 168.518 134.355 168.154C134.664 167.79 134.818 167.31 134.818 166.713ZM141.026 181.332L139.472 180.519L139.842 179.85C140.302 179.012 140.539 178.178 140.553 177.348L140.553 175.042L143.065 175.042L143.054 177.101C143.048 177.863 142.855 178.631 142.478 179.407C142.1 180.183 141.616 180.824 141.026 181.332ZM155.368 171.377C155.368 173.449 154.939 175.035 154.081 176.133C153.223 177.231 151.967 177.78 150.313 177.78C148.679 177.78 147.43 177.242 146.565 176.164C145.7 175.086 145.258 173.542 145.237 171.531L145.237 168.772C145.237 166.678 145.67 165.089 146.534 164.005C147.406 162.92 148.659 162.378 150.292 162.378C151.926 162.378 153.175 162.917 154.04 163.995C154.905 165.065 155.347 166.606 155.368 168.617L155.368 171.377ZM152.393 168.35C152.393 167.107 152.221 166.205 151.878 165.642C151.541 165.072 151.013 164.787 150.292 164.787C149.592 164.787 149.074 165.059 148.738 165.601C148.408 166.136 148.233 166.977 148.213 168.123L148.213 171.768C148.213 172.99 148.377 173.899 148.707 174.496C149.043 175.086 149.578 175.382 150.313 175.382C151.04 175.382 151.565 175.097 151.888 174.527C152.211 173.957 152.379 173.086 152.393 171.912L152.393 168.35ZM167.475 171.377C167.475 173.449 167.046 175.035 166.189 176.133C165.331 177.231 164.075 177.78 162.42 177.78C160.787 177.78 159.538 177.242 158.673 176.164C157.808 175.086 157.365 173.542 157.345 171.531L157.345 168.772C157.345 166.678 157.777 165.089 158.642 164.005C159.514 162.92 160.766 162.378 162.4 162.378C164.033 162.378 165.283 162.917 166.147 163.995C167.012 165.065 167.455 166.606 167.475 168.617L167.475 171.377ZM164.5 168.35C164.5 167.107 164.328 166.205 163.985 165.642C163.649 165.072 163.12 164.787 162.4 164.787C161.7 164.787 161.181 165.059 160.845 165.601C160.516 166.136 160.341 166.977 160.32 168.123L160.32 171.768C160.32 172.99 160.485 173.899 160.814 174.496C161.151 175.086 161.686 175.382 162.42 175.382C163.148 175.382 163.673 175.097 163.996 174.527C164.318 173.957 164.486 173.086 164.5 171.912L164.5 168.35ZM179.583 171.377C179.583 173.449 179.154 175.035 178.296 176.133C177.438 177.231 176.182 177.78 174.528 177.78C172.894 177.78 171.645 177.242 170.78 176.164C169.916 175.086 169.473 173.542 169.452 171.531L169.452 168.772C169.452 166.678 169.885 165.089 170.749 164.005C171.621 162.92 172.874 162.378 174.507 162.378C176.141 162.378 177.39 162.917 178.255 163.995C179.12 165.065 179.562 166.606 179.583 168.617L179.583 171.377ZM176.608 168.35C176.608 167.107 176.436 166.205 176.093 165.642C175.757 165.072 175.228 164.787 174.507 164.787C173.807 164.787 173.289 165.059 172.953 165.601C172.623 166.136 172.448 166.977 172.428 168.123L172.428 171.768C172.428 172.99 172.592 173.899 172.922 174.496C173.258 175.086 173.794 175.382 174.528 175.382C175.255 175.382 175.781 175.097 176.103 174.527C176.426 173.957 176.594 173.086 176.608 171.912L176.608 168.35Z" fill="white"/>
<g filter="url(#filter2_d)">
<rect x="52.5" y="120" width="101" height="41" rx="8" fill="white"/>
</g>
<path d="M86.416 143.012H82.342L81.642 145H79.976L83.462 135.256H85.31L88.796 145H87.116L86.416 143.012ZM85.968 141.71L84.386 137.188L82.79 141.71H85.968ZM89.6397 141.108C89.6397 140.333 89.7984 139.647 90.1157 139.05C90.4424 138.453 90.8811 137.991 91.4317 137.664C91.9917 137.328 92.6124 137.16 93.2937 137.16C93.7977 137.16 94.2924 137.272 94.7777 137.496C95.2724 137.711 95.6644 138 95.9537 138.364V134.64H97.5637V145H95.9537V143.838C95.6924 144.211 95.3284 144.519 94.8617 144.762C94.4044 145.005 93.8771 145.126 93.2797 145.126C92.6077 145.126 91.9917 144.958 91.4317 144.622C90.8811 144.277 90.4424 143.801 90.1157 143.194C89.7984 142.578 89.6397 141.883 89.6397 141.108ZM95.9537 141.136C95.9537 140.604 95.8417 140.142 95.6177 139.75C95.4031 139.358 95.1184 139.059 94.7637 138.854C94.4091 138.649 94.0264 138.546 93.6157 138.546C93.2051 138.546 92.8224 138.649 92.4677 138.854C92.1131 139.05 91.8237 139.344 91.5997 139.736C91.3851 140.119 91.2777 140.576 91.2777 141.108C91.2777 141.64 91.3851 142.107 91.5997 142.508C91.8237 142.909 92.1131 143.217 92.4677 143.432C92.8317 143.637 93.2144 143.74 93.6157 143.74C94.0264 143.74 94.4091 143.637 94.7637 143.432C95.1184 143.227 95.4031 142.928 95.6177 142.536C95.8417 142.135 95.9537 141.668 95.9537 141.136ZM98.988 141.108C98.988 140.333 99.1467 139.647 99.464 139.05C99.7907 138.453 100.229 137.991 100.78 137.664C101.34 137.328 101.961 137.16 102.642 137.16C103.146 137.16 103.641 137.272 104.126 137.496C104.621 137.711 105.013 138 105.302 138.364V134.64H106.912V145H105.302V143.838C105.041 144.211 104.677 144.519 104.21 144.762C103.753 145.005 103.225 145.126 102.628 145.126C101.956 145.126 101.34 144.958 100.78 144.622C100.229 144.277 99.7907 143.801 99.464 143.194C99.1467 142.578 98.988 141.883 98.988 141.108ZM105.302 141.136C105.302 140.604 105.19 140.142 104.966 139.75C104.751 139.358 104.467 139.059 104.112 138.854C103.757 138.649 103.375 138.546 102.964 138.546C102.553 138.546 102.171 138.649 101.816 138.854C101.461 139.05 101.172 139.344 100.948 139.736C100.733 140.119 100.626 140.576 100.626 141.108C100.626 141.64 100.733 142.107 100.948 142.508C101.172 142.909 101.461 143.217 101.816 143.432C102.18 143.637 102.563 143.74 102.964 143.74C103.375 143.74 103.757 143.637 104.112 143.432C104.467 143.227 104.751 142.928 104.966 142.536C105.19 142.135 105.302 141.668 105.302 141.136ZM120.359 145H118.763L113.961 137.734V145H112.365V135.256H113.961L118.763 142.508V135.256H120.359V145ZM129.385 140.954C129.385 141.243 129.366 141.505 129.329 141.738H123.435C123.482 142.354 123.71 142.849 124.121 143.222C124.532 143.595 125.036 143.782 125.633 143.782C126.492 143.782 127.098 143.423 127.453 142.704H129.175C128.942 143.413 128.517 143.997 127.901 144.454C127.294 144.902 126.538 145.126 125.633 145.126C124.896 145.126 124.233 144.963 123.645 144.636C123.066 144.3 122.609 143.833 122.273 143.236C121.946 142.629 121.783 141.929 121.783 141.136C121.783 140.343 121.942 139.647 122.259 139.05C122.586 138.443 123.038 137.977 123.617 137.65C124.205 137.323 124.877 137.16 125.633 137.16C126.361 137.16 127.01 137.319 127.579 137.636C128.148 137.953 128.592 138.401 128.909 138.98C129.226 139.549 129.385 140.207 129.385 140.954ZM127.719 140.45C127.71 139.862 127.5 139.391 127.089 139.036C126.678 138.681 126.17 138.504 125.563 138.504C125.012 138.504 124.541 138.681 124.149 139.036C123.757 139.381 123.524 139.853 123.449 140.45H127.719ZM141.175 137.286L138.781 145H137.101L135.547 139.302L133.993 145H132.313L129.905 137.286H131.529L133.139 143.488L134.777 137.286H136.443L138.011 143.46L139.607 137.286H141.175Z" fill="#515151"/>
<rect x="64.5" y="140" width="9" height="1.5" fill="#515151"/>
<rect x="70" y="136" width="9" height="1.5" transform="rotate(90 70 136)" fill="#515151"/>
<defs>
<filter id="filter0_f" x="0.0736389" y="0.573639" width="350.853" height="359.853" filterUnits="userSpaceOnUse" color-interpolation-filters="sRGB">
<feFlood flood-opacity="0" result="BackgroundImageFix"/>
<feBlend mode="normal" in="SourceGraphic" in2="BackgroundImageFix" result="shape"/>
<feGaussianBlur stdDeviation="52.7132" result="effect1_foregroundBlur"/>
</filter>
<filter id="filter1_b" x="88.0864" y="40.1164" width="105.83" height="105.607" filterUnits="userSpaceOnUse" color-interpolation-filters="sRGB">
<feFlood flood-opacity="0" result="BackgroundImageFix"/>
<feGaussianBlur in="BackgroundImage" stdDeviation="18.4496"/>
<feComposite in2="SourceAlpha" operator="in" result="effect1_backgroundBlur"/>
<feBlend mode="normal" in="SourceGraphic" in2="effect1_backgroundBlur" result="shape"/>
</filter>
<filter id="filter2_d" x="42.5" y="110" width="181" height="121" filterUnits="userSpaceOnUse" color-interpolation-filters="sRGB">
<feFlood flood-opacity="0" result="BackgroundImageFix"/>
<feColorMatrix in="SourceAlpha" type="matrix" values="0 0 0 0 0 0 0 0 0 0 0 0 0 0 0 0 0 0 127 0"/>
<feOffset dx="30" dy="30"/>
<feGaussianBlur stdDeviation="20"/>
<feColorMatrix type="matrix" values="0 0 0 0 0 0 0 0 0 0 0 0 0 0 0 0 0 0 0.04 0"/>
<feBlend mode="normal" in2="BackgroundImageFix" result="effect1_dropShadow"/>
<feBlend mode="normal" in="SourceGraphic" in2="effect1_dropShadow" result="shape"/>
</filter>
</defs>
</svg>
