<svg width="195" height="170" viewBox="0 0 195 170" fill="none" xmlns="http://www.w3.org/2000/svg">
<rect x="194.12" y="160.776" width="121.24" height="158.14" rx="16" transform="rotate(-180 194.12 160.776)" fill="#8A96F4"/>
<rect x="193.725" y="160.38" width="120.45" height="157.349" rx="15.6047" transform="rotate(-180 193.725 160.38)" stroke="white" stroke-opacity="0.5" stroke-width="0.790698"/>
<g opacity="0.3" filter="url(#filter0_b)">
<rect x="82.9856" y="16.0156" width="32.0312" height="31.8084" rx="15.9042" fill="white"/>
</g>
<path d="M99.1445 26.0944L99.3013 38.4381M99.3013 38.4381L103.469 34.6034M99.3013 38.4381L94.9613 34.7114" stroke="white" stroke-width="1.26049" stroke-linecap="round"/>
<path d="M123.718 20.2741L123.718 26.8685L122.637 26.8685L122.637 20.2741L123.718 20.2741ZM127.776 21.555C128.187 21.555 128.554 21.6404 128.877 21.8112C129.206 21.982 129.462 22.235 129.646 22.5703C129.829 22.9056 129.921 23.3104 129.921 23.7848L129.921 26.8685L128.848 26.8685L128.848 23.9461C128.848 23.478 128.731 23.1206 128.497 22.8739C128.263 22.6209 127.944 22.4944 127.539 22.4944C127.134 22.4944 126.812 22.6209 126.571 22.8739C126.337 23.1206 126.22 23.478 126.22 23.9461L126.22 26.8685L125.139 26.8685L125.139 21.6404L126.22 21.6404L126.22 22.2382C126.397 22.0231 126.622 21.8555 126.894 21.7353C127.172 21.6151 127.466 21.555 127.776 21.555ZM130.94 24.2497C130.94 23.7121 131.047 23.2408 131.262 22.836C131.484 22.4248 131.787 22.1085 132.173 21.8871C132.559 21.6657 133.002 21.555 133.502 21.555C134.134 21.555 134.656 21.7069 135.067 22.0105C135.485 22.3078 135.766 22.7348 135.912 23.2914L134.745 23.2914C134.65 23.0321 134.498 22.8296 134.289 22.6842C134.081 22.5387 133.818 22.4659 133.502 22.4659C133.059 22.4659 132.705 22.6241 132.439 22.9403C132.18 23.2503 132.05 23.6868 132.05 24.2497C132.05 24.8127 132.18 25.2523 132.439 25.5686C132.705 25.8849 133.059 26.043 133.502 26.043C134.128 26.043 134.542 25.7679 134.745 25.2176L135.912 25.2176C135.76 25.7489 135.475 26.1727 135.058 26.489C134.64 26.7989 134.122 26.9539 133.502 26.9539C133.002 26.9539 132.559 26.8432 132.173 26.6218C131.787 26.3941 131.484 26.0778 131.262 25.673C131.047 25.2618 130.94 24.7874 130.94 24.2497ZM139.257 26.9539C138.764 26.9539 138.318 26.8432 137.92 26.6218C137.521 26.3941 137.208 26.0778 136.98 25.673C136.753 25.2618 136.639 24.7874 136.639 24.2497C136.639 23.7184 136.756 23.2471 136.99 22.836C137.224 22.4248 137.543 22.1085 137.948 21.8871C138.353 21.6657 138.805 21.555 139.305 21.555C139.805 21.555 140.257 21.6657 140.662 21.8871C141.067 22.1085 141.386 22.4248 141.62 22.836C141.854 23.2471 141.971 23.7184 141.971 24.2497C141.971 24.7811 141.851 25.2523 141.611 25.6635C141.37 26.0747 141.041 26.3941 140.624 26.6218C140.213 26.8432 139.757 26.9539 139.257 26.9539ZM139.257 26.0146C139.536 26.0146 139.795 25.9482 140.035 25.8153C140.282 25.6825 140.481 25.4832 140.633 25.2176C140.785 24.9519 140.861 24.6293 140.861 24.2497C140.861 23.8702 140.788 23.5508 140.643 23.2914C140.497 23.0257 140.304 22.8265 140.064 22.6936C139.824 22.5608 139.564 22.4944 139.286 22.4944C139.008 22.4944 138.748 22.5608 138.508 22.6936C138.274 22.8265 138.087 23.0257 137.948 23.2914C137.809 23.5508 137.739 23.8702 137.739 24.2497C137.739 24.8127 137.882 25.2492 138.166 25.5591C138.457 25.8628 138.821 26.0146 139.257 26.0146ZM149.369 21.555C149.78 21.555 150.147 21.6404 150.47 21.8112C150.799 21.982 151.055 22.235 151.238 22.5703C151.428 22.9056 151.523 23.3104 151.523 23.7848L151.523 26.8685L150.451 26.8685L150.451 23.9461C150.451 23.478 150.334 23.1206 150.1 22.8739C149.866 22.6209 149.546 22.4944 149.141 22.4944C148.737 22.4944 148.414 22.6209 148.174 22.8739C147.94 23.1206 147.823 23.478 147.823 23.9461L147.823 26.8685L146.75 26.8685L146.75 23.9461C146.75 23.478 146.633 23.1206 146.399 22.8739C146.165 22.6209 145.846 22.4944 145.441 22.4944C145.036 22.4944 144.714 22.6209 144.473 22.8739C144.239 23.1206 144.122 23.478 144.122 23.9461L144.122 26.8685L143.04 26.8685L143.04 21.6404L144.122 21.6404L144.122 22.2382C144.299 22.0231 144.524 21.8555 144.796 21.7353C145.068 21.6151 145.359 21.555 145.669 21.555C146.086 21.555 146.459 21.6436 146.788 21.8207C147.117 21.9978 147.37 22.254 147.547 22.5893C147.706 22.273 147.952 22.0231 148.287 21.8397C148.623 21.6499 148.983 21.555 149.369 21.555ZM157.691 24.1264C157.691 24.3225 157.678 24.4996 157.653 24.6577L153.659 24.6577C153.69 25.0752 153.845 25.4105 154.123 25.6635C154.402 25.9165 154.743 26.043 155.148 26.043C155.73 26.043 156.141 25.7995 156.382 25.3124L157.549 25.3124C157.391 25.7932 157.103 26.1885 156.685 26.4985C156.274 26.8021 155.762 26.9539 155.148 26.9539C154.648 26.9539 154.199 26.8432 153.801 26.6218C153.409 26.3941 153.099 26.0778 152.871 25.673C152.65 25.2618 152.539 24.7874 152.539 24.2497C152.539 23.7121 152.646 23.2408 152.861 22.836C153.083 22.4248 153.39 22.1085 153.782 21.8871C154.18 21.6657 154.636 21.555 155.148 21.555C155.642 21.555 156.081 21.6626 156.467 21.8776C156.853 22.0927 157.153 22.3963 157.368 22.7885C157.584 23.1744 157.691 23.6203 157.691 24.1264ZM156.562 23.7848C156.556 23.3863 156.413 23.0669 156.135 22.8265C155.857 22.5861 155.512 22.4659 155.101 22.4659C154.728 22.4659 154.408 22.5861 154.142 22.8265C153.877 23.0605 153.719 23.38 153.668 23.7848L156.562 23.7848Z" fill="white"/>
<path d="M124.732 39.9406L125.338 34.6075L131.219 34.6075L131.219 36.3443L127.046 36.3443L126.786 38.6001C127.281 38.3359 127.807 38.2037 128.365 38.2037C129.364 38.2037 130.147 38.5136 130.714 39.1334C131.281 39.7532 131.565 40.6204 131.565 41.7351C131.565 42.4125 131.42 43.0203 131.132 43.5584C130.849 44.0917 130.44 44.5073 129.907 44.8052C129.374 45.0983 128.744 45.2448 128.019 45.2448C127.385 45.2448 126.796 45.1175 126.253 44.8629C125.71 44.6034 125.28 44.2407 124.963 43.7746C124.651 43.3086 124.485 42.7777 124.466 42.1819L126.527 42.1819C126.57 42.6191 126.722 42.9603 126.981 43.2053C127.245 43.4455 127.589 43.5656 128.012 43.5656C128.482 43.5656 128.845 43.3975 129.1 43.0612C129.354 42.72 129.482 42.2396 129.482 41.6198C129.482 41.024 129.335 40.5676 129.042 40.2505C128.749 39.9334 128.333 39.7748 127.795 39.7748C127.3 39.7748 126.899 39.9045 126.592 40.164L126.39 40.3514L124.732 39.9406ZM133.525 47.7312L132.437 47.1619L132.696 46.6934C133.018 46.1073 133.184 45.5235 133.193 44.9422L133.193 43.3278L134.952 43.3278L134.945 44.7692C134.94 45.3025 134.805 45.8406 134.541 46.3835C134.277 46.9265 133.938 47.3757 133.525 47.7312ZM142.151 34.4994L142.151 36.2146L141.95 36.2146C141.008 36.229 140.249 36.4741 139.672 36.9497C139.101 37.4254 138.757 38.086 138.642 38.9316C139.199 38.3647 139.903 38.0812 140.753 38.0812C141.666 38.0812 142.392 38.4079 142.93 39.0613C143.468 39.7148 143.737 40.5748 143.737 41.6414C143.737 42.3237 143.588 42.941 143.29 43.4936C142.997 44.0461 142.579 44.4761 142.036 44.7836C141.498 45.0911 140.888 45.2448 140.206 45.2448C139.101 45.2448 138.207 44.8605 137.525 44.0917C136.847 43.323 136.508 42.2972 136.508 41.0144L136.508 40.2649C136.508 39.1262 136.722 38.122 137.15 37.2524C137.582 36.378 138.2 35.7029 139.002 35.2273C139.809 34.7468 140.744 34.5042 141.806 34.4994L142.151 34.4994ZM140.119 39.7532C139.783 39.7532 139.478 39.8421 139.204 40.0199C138.93 40.1928 138.728 40.4234 138.598 40.7117L138.598 41.3459C138.598 42.0426 138.735 42.5879 139.009 42.9819C139.283 43.3711 139.667 43.5656 140.162 43.5656C140.609 43.5656 140.97 43.3903 141.243 43.0395C141.522 42.684 141.661 42.2252 141.661 41.663C141.661 41.0913 141.522 40.63 141.243 40.2793C140.965 39.9286 140.59 39.7532 140.119 39.7532ZM152.039 40.7622C152.039 42.2132 151.739 43.323 151.138 44.0917C150.538 44.8605 149.659 45.2448 148.501 45.2448C147.357 45.2448 146.483 44.8677 145.877 44.1134C145.272 43.359 144.962 42.278 144.948 40.8703L144.948 38.9388C144.948 37.4734 145.25 36.3612 145.856 35.602C146.466 34.8429 147.343 34.4634 148.486 34.4634C149.63 34.4634 150.504 34.8405 151.11 35.5948C151.715 36.3443 152.025 37.423 152.039 38.8307L152.039 40.7622ZM149.957 38.6433C149.957 37.7737 149.836 37.1419 149.596 36.7479C149.361 36.3492 148.991 36.1498 148.486 36.1498C147.996 36.1498 147.633 36.3395 147.398 36.7191C147.167 37.0939 147.045 37.6824 147.031 38.4848L147.031 41.036C147.031 41.8912 147.146 42.5279 147.376 42.9459C147.612 43.359 147.987 43.5656 148.501 43.5656C149.01 43.5656 149.378 43.3663 149.603 42.9675C149.829 42.5687 149.947 41.9585 149.957 41.1369L149.957 38.6433ZM160.515 40.7622C160.515 42.2132 160.214 43.323 159.614 44.0917C159.013 44.8605 158.134 45.2448 156.976 45.2448C155.833 45.2448 154.958 44.8677 154.353 44.1134C153.747 43.359 153.437 42.278 153.423 40.8703L153.423 38.9388C153.423 37.4734 153.726 36.3612 154.331 35.602C154.941 34.8429 155.818 34.4634 156.962 34.4634C158.105 34.4634 158.98 34.8405 159.585 35.5948C160.19 36.3443 160.5 37.423 160.515 38.8307L160.515 40.7622ZM158.432 38.6433C158.432 37.7737 158.312 37.1419 158.071 36.7479C157.836 36.3492 157.466 36.1498 156.962 36.1498C156.472 36.1498 156.109 36.3395 155.873 36.7191C155.643 37.0939 155.52 37.6824 155.506 38.4848L155.506 41.036C155.506 41.8912 155.621 42.5279 155.852 42.9459C156.087 43.359 156.462 43.5656 156.976 43.5656C157.485 43.5656 157.853 43.3663 158.079 42.9675C158.304 42.5687 158.422 41.9585 158.432 41.1369L158.432 38.6433Z" fill="white"/>
<path d="M87.3339 83.9054L87.9668 85.2117L89.4144 85.4053L88.353 86.4404L88.5837 87.8816L87.2948 87.2151L85.9898 87.9123L86.2546 86.4652L85.2174 85.4549L86.6699 85.227L87.3339 83.9054Z" fill="white"/>
<path d="M94.7436 83.9399L95.3766 85.2462L96.8241 85.4397L95.7628 86.4749L95.9934 87.9161L94.7045 87.2496L93.3996 87.9468L93.6643 86.4997L92.6272 85.4893L94.0797 85.2615L94.7436 83.9399Z" fill="white"/>
<path d="M102.153 83.975L102.786 85.2812L104.233 85.4748L103.172 86.5099L103.403 87.9511L102.114 87.2846L100.809 87.9818L101.073 86.5347L100.036 85.5244L101.489 85.2965L102.153 83.975Z" fill="white"/>
<path d="M109.563 84.0099L110.195 85.3162L111.643 85.5097L110.582 86.5449L110.812 87.9861L109.523 87.3196L108.218 88.0168L108.483 86.5697L107.446 85.5594L108.899 85.3315L109.563 84.0099Z" fill="white"/>
<path d="M122.188 84.1377L119.009 84.1377L119.009 86.0258C119.142 85.8487 119.338 85.7001 119.597 85.5799C119.863 85.4597 120.144 85.3996 120.442 85.3996C120.973 85.3996 121.403 85.5135 121.732 85.7412C122.067 85.9689 122.305 86.2567 122.444 86.6046C122.589 86.9525 122.662 87.3194 122.662 87.7053C122.662 88.1734 122.57 88.5909 122.387 88.9577C122.21 89.3183 121.941 89.603 121.58 89.8117C121.226 90.0204 120.79 90.1248 120.271 90.1248C119.581 90.1248 119.028 89.954 118.61 89.6124C118.193 89.2709 117.943 88.8186 117.861 88.2556L118.914 88.2556C118.984 88.5529 119.139 88.7901 119.379 88.9672C119.619 89.138 119.92 89.2234 120.28 89.2234C120.73 89.2234 121.065 89.0874 121.286 88.8154C121.514 88.5434 121.628 88.1829 121.628 87.7337C121.628 87.2783 121.514 86.9304 121.286 86.69C121.058 86.4433 120.723 86.32 120.28 86.32C119.97 86.32 119.708 86.399 119.493 86.5572C119.284 86.709 119.132 86.9177 119.037 87.1834L118.013 87.1834L118.013 83.1888L122.188 83.1888L122.188 84.1377ZM123.788 86.5762C123.788 85.4818 123.971 84.6279 124.338 84.0143C124.712 83.3944 125.35 83.0844 126.255 83.0844C127.16 83.0844 127.795 83.3944 128.162 84.0143C128.535 84.6279 128.722 85.4818 128.722 86.5762C128.722 87.6831 128.535 88.5497 128.162 89.176C127.795 89.7959 127.16 90.1058 126.255 90.1058C125.35 90.1058 124.712 89.7959 124.338 89.176C123.971 88.5497 123.788 87.6831 123.788 86.5762ZM127.659 86.5762C127.659 86.0638 127.624 85.6305 127.555 85.2763C127.492 84.922 127.359 84.6342 127.156 84.4128C126.954 84.1851 126.654 84.0712 126.255 84.0712C125.856 84.0712 125.556 84.1851 125.354 84.4128C125.151 84.6342 125.015 84.922 124.946 85.2763C124.882 85.6305 124.851 86.0638 124.851 86.5762C124.851 87.1075 124.882 87.5535 124.946 87.914C125.009 88.2746 125.142 88.5656 125.344 88.787C125.553 89.0084 125.856 89.119 126.255 89.119C126.654 89.119 126.954 89.0084 127.156 88.787C127.365 88.5656 127.501 88.2746 127.564 87.914C127.628 87.5535 127.659 87.1075 127.659 86.5762ZM131.034 86.5097C130.376 86.1808 130.047 85.6621 130.047 84.9537C130.047 84.6121 130.132 84.299 130.303 84.0143C130.474 83.7297 130.73 83.5051 131.072 83.3406C131.413 83.1698 131.831 83.0844 132.324 83.0844C132.811 83.0844 133.225 83.1698 133.567 83.3406C133.915 83.5051 134.174 83.7297 134.345 84.0143C134.516 84.299 134.601 84.6121 134.601 84.9537C134.601 85.3079 134.509 85.621 134.326 85.893C134.149 86.1587 133.912 86.3643 133.614 86.5097C133.975 86.6426 134.26 86.8608 134.468 87.1644C134.677 87.4617 134.781 87.8128 134.781 88.2177C134.781 88.6288 134.677 88.9925 134.468 89.3088C134.26 89.6251 133.969 89.8686 133.595 90.0394C133.222 90.2102 132.798 90.2956 132.324 90.2956C131.85 90.2956 131.426 90.2102 131.053 90.0394C130.686 89.8686 130.398 89.6251 130.189 89.3088C129.98 88.9925 129.876 88.6288 129.876 88.2177C129.876 87.8065 129.98 87.4523 130.189 87.155C130.398 86.8577 130.679 86.6426 131.034 86.5097ZM133.567 85.0865C133.567 84.7323 133.456 84.4603 133.235 84.2705C133.013 84.0807 132.71 83.9858 132.324 83.9858C131.944 83.9858 131.644 84.0807 131.423 84.2705C131.201 84.4603 131.091 84.7354 131.091 85.096C131.091 85.4123 131.204 85.6716 131.432 85.874C131.666 86.0701 131.963 86.1682 132.324 86.1682C132.685 86.1682 132.982 86.067 133.216 85.8645C133.45 85.6621 133.567 85.4028 133.567 85.0865ZM132.324 86.9842C131.907 86.9842 131.565 87.0885 131.299 87.2973C131.04 87.4997 130.91 87.7938 130.91 88.1797C130.91 88.5403 131.037 88.8344 131.29 89.0621C131.543 89.2835 131.888 89.3942 132.324 89.3942C132.754 89.3942 133.093 89.2804 133.339 89.0526C133.592 88.8249 133.719 88.5339 133.719 88.1797C133.719 87.8002 133.589 87.506 133.33 87.2973C133.077 87.0885 132.741 86.9842 132.324 86.9842ZM135.917 86.5762C135.917 85.4818 136.101 84.6279 136.468 84.0143C136.841 83.3944 137.48 83.0844 138.384 83.0844C139.289 83.0844 139.924 83.3944 140.291 84.0143C140.665 84.6279 140.851 85.4818 140.851 86.5762C140.851 87.6831 140.665 88.5497 140.291 89.176C139.924 89.7959 139.289 90.1058 138.384 90.1058C137.48 90.1058 136.841 89.7959 136.468 89.176C136.101 88.5497 135.917 87.6831 135.917 86.5762ZM139.788 86.5762C139.788 86.0638 139.754 85.6305 139.684 85.2763C139.621 84.922 139.488 84.6342 139.286 84.4128C139.083 84.1851 138.783 84.0712 138.384 84.0712C137.986 84.0712 137.685 84.1851 137.483 84.4128C137.28 84.6342 137.144 84.922 137.075 85.2763C137.012 85.6305 136.98 86.0638 136.98 86.5762C136.98 87.1075 137.012 87.5535 137.075 87.914C137.138 88.2746 137.271 88.5656 137.473 88.787C137.682 89.0084 137.986 89.119 138.384 89.119C138.783 89.119 139.083 89.0084 139.286 88.787C139.494 88.5656 139.63 88.2746 139.694 87.914C139.757 87.5535 139.788 87.1075 139.788 86.5762Z" fill="white"/>
<path d="M95.7934 105.569C95.7934 106.296 95.6115 106.941 95.2478 107.504C94.884 108.067 94.3829 108.516 93.7446 108.853C94.4722 109.203 95.0487 109.687 95.4743 110.304C95.8998 110.915 96.1126 111.636 96.1126 112.467C96.1126 113.798 95.6596 114.852 94.7536 115.627C93.8476 116.396 92.6155 116.78 91.0575 116.78C89.4994 116.78 88.2639 116.393 87.3511 115.617C86.4382 114.841 85.9818 113.791 85.9818 112.467C85.9818 111.636 86.1945 110.912 86.6201 110.294C87.0456 109.676 87.6188 109.196 88.3394 108.853C87.7011 108.516 87.2001 108.067 86.8363 107.504C86.4794 106.941 86.3009 106.296 86.3009 105.569C86.3009 104.292 86.7265 103.276 87.5776 102.521C88.4287 101.759 89.5852 101.378 91.0472 101.378C92.5023 101.378 93.6554 101.756 94.5065 102.511C95.3644 103.259 95.7934 104.278 95.7934 105.569ZM93.1269 112.25C93.1269 111.598 92.9381 111.077 92.5606 110.685C92.1831 110.294 91.6752 110.099 91.0369 110.099C90.4054 110.099 89.9009 110.294 89.5234 110.685C89.1459 111.07 88.9572 111.591 88.9572 112.25C88.9572 112.889 89.1425 113.403 89.5131 113.795C89.8838 114.186 90.3986 114.382 91.0575 114.382C91.7027 114.382 92.2071 114.193 92.5709 113.815C92.9416 113.438 93.1269 112.916 93.1269 112.25ZM92.818 105.713C92.818 105.129 92.6636 104.663 92.3547 104.312C92.0458 103.956 91.61 103.777 91.0472 103.777C90.4912 103.777 90.0588 103.949 89.7499 104.292C89.4411 104.635 89.2866 105.109 89.2866 105.713C89.2866 106.31 89.4411 106.79 89.7499 107.154C90.0588 107.518 90.4946 107.7 91.0575 107.7C91.6203 107.7 92.0527 107.518 92.3547 107.154C92.6636 106.79 92.818 106.31 92.818 105.713ZM99.0262 120.332L97.4716 119.519L97.8422 118.85C98.3021 118.012 98.5389 117.178 98.5526 116.348L98.5526 114.042L101.065 114.042L101.054 116.101C101.048 116.863 100.855 117.631 100.478 118.407C100.1 119.183 99.6165 119.824 99.0262 120.332ZM113.368 110.377C113.368 112.449 112.939 114.035 112.081 115.133C111.223 116.231 109.967 116.78 108.313 116.78C106.679 116.78 105.43 116.242 104.565 115.164C103.7 114.086 103.258 112.542 103.237 110.531L103.237 107.772C103.237 105.678 103.67 104.089 104.534 103.005C105.406 101.92 106.659 101.378 108.292 101.378C109.926 101.378 111.175 101.917 112.04 102.995C112.905 104.065 113.347 105.606 113.368 107.617L113.368 110.377ZM110.393 107.35C110.393 106.107 110.221 105.205 109.878 104.642C109.541 104.072 109.013 103.787 108.292 103.787C107.592 103.787 107.074 104.059 106.738 104.601C106.408 105.136 106.233 105.977 106.213 107.123L106.213 110.768C106.213 111.99 106.377 112.899 106.707 113.496C107.043 114.086 107.578 114.382 108.313 114.382C109.04 114.382 109.565 114.097 109.888 113.527C110.211 112.957 110.379 112.086 110.393 110.912L110.393 107.35ZM125.475 110.377C125.475 112.449 125.046 114.035 124.189 115.133C123.331 116.231 122.075 116.78 120.42 116.78C118.787 116.78 117.538 116.242 116.673 115.164C115.808 114.086 115.365 112.542 115.345 110.531L115.345 107.772C115.345 105.678 115.777 104.089 116.642 103.005C117.514 101.92 118.766 101.378 120.4 101.378C122.033 101.378 123.283 101.917 124.147 102.995C125.012 104.065 125.455 105.606 125.475 107.617L125.475 110.377ZM122.5 107.35C122.5 106.107 122.328 105.205 121.985 104.642C121.649 104.072 121.12 103.787 120.4 103.787C119.7 103.787 119.181 104.059 118.845 104.601C118.516 105.136 118.341 105.977 118.32 107.123L118.32 110.768C118.32 111.99 118.485 112.899 118.814 113.496C119.151 114.086 119.686 114.382 120.42 114.382C121.148 114.382 121.673 114.097 121.996 113.527C122.318 112.957 122.486 112.086 122.5 110.912L122.5 107.35ZM137.583 110.377C137.583 112.449 137.154 114.035 136.296 115.133C135.438 116.231 134.182 116.78 132.528 116.78C130.894 116.78 129.645 116.242 128.78 115.164C127.916 114.086 127.473 112.542 127.452 110.531L127.452 107.772C127.452 105.678 127.885 104.089 128.749 103.005C129.621 101.92 130.874 101.378 132.507 101.378C134.141 101.378 135.39 101.917 136.255 102.995C137.12 104.065 137.562 105.606 137.583 107.617L137.583 110.377ZM134.608 107.35C134.608 106.107 134.436 105.205 134.093 104.642C133.757 104.072 133.228 103.787 132.507 103.787C131.807 103.787 131.289 104.059 130.953 104.601C130.623 105.136 130.448 105.977 130.428 107.123L130.428 110.768C130.428 111.99 130.592 112.899 130.922 113.496C131.258 114.086 131.794 114.382 132.528 114.382C133.255 114.382 133.781 114.097 134.103 113.527C134.426 112.957 134.594 112.086 134.608 110.912L134.608 107.35Z" fill="white"/>
<g filter="url(#filter1_d)">
<rect x="10.5" y="59" width="101" height="41" rx="8" fill="white"/>
</g>
<path d="M44.416 82.012H40.342L39.642 84H37.976L41.462 74.256H43.31L46.796 84H45.116L44.416 82.012ZM43.968 80.71L42.386 76.188L40.79 80.71H43.968ZM47.6397 80.108C47.6397 79.3333 47.7984 78.6473 48.1157 78.05C48.4424 77.4527 48.8811 76.9907 49.4317 76.664C49.9917 76.328 50.6124 76.16 51.2937 76.16C51.7977 76.16 52.2924 76.272 52.7777 76.496C53.2724 76.7107 53.6644 77 53.9537 77.364V73.64H55.5637V84H53.9537V82.838C53.6924 83.2113 53.3284 83.5193 52.8617 83.762C52.4044 84.0047 51.8771 84.126 51.2797 84.126C50.6077 84.126 49.9917 83.958 49.4317 83.622C48.8811 83.2767 48.4424 82.8007 48.1157 82.194C47.7984 81.578 47.6397 80.8827 47.6397 80.108ZM53.9537 80.136C53.9537 79.604 53.8417 79.142 53.6177 78.75C53.4031 78.358 53.1184 78.0593 52.7637 77.854C52.4091 77.6487 52.0264 77.546 51.6157 77.546C51.2051 77.546 50.8224 77.6487 50.4677 77.854C50.1131 78.05 49.8237 78.344 49.5997 78.736C49.3851 79.1187 49.2777 79.576 49.2777 80.108C49.2777 80.64 49.3851 81.1067 49.5997 81.508C49.8237 81.9093 50.1131 82.2173 50.4677 82.432C50.8317 82.6373 51.2144 82.74 51.6157 82.74C52.0264 82.74 52.4091 82.6373 52.7637 82.432C53.1184 82.2267 53.4031 81.928 53.6177 81.536C53.8417 81.1347 53.9537 80.668 53.9537 80.136ZM56.988 80.108C56.988 79.3333 57.1467 78.6473 57.464 78.05C57.7907 77.4527 58.2293 76.9907 58.78 76.664C59.34 76.328 59.9607 76.16 60.642 76.16C61.146 76.16 61.6407 76.272 62.126 76.496C62.6207 76.7107 63.0127 77 63.302 77.364V73.64H64.912V84H63.302V82.838C63.0407 83.2113 62.6767 83.5193 62.21 83.762C61.7527 84.0047 61.2253 84.126 60.628 84.126C59.956 84.126 59.34 83.958 58.78 83.622C58.2293 83.2767 57.7907 82.8007 57.464 82.194C57.1467 81.578 56.988 80.8827 56.988 80.108ZM63.302 80.136C63.302 79.604 63.19 79.142 62.966 78.75C62.7513 78.358 62.4667 78.0593 62.112 77.854C61.7573 77.6487 61.3747 77.546 60.964 77.546C60.5533 77.546 60.1707 77.6487 59.816 77.854C59.4613 78.05 59.172 78.344 58.948 78.736C58.7333 79.1187 58.626 79.576 58.626 80.108C58.626 80.64 58.7333 81.1067 58.948 81.508C59.172 81.9093 59.4613 82.2173 59.816 82.432C60.18 82.6373 60.5627 82.74 60.964 82.74C61.3747 82.74 61.7573 82.6373 62.112 82.432C62.4667 82.2267 62.7513 81.928 62.966 81.536C63.19 81.1347 63.302 80.668 63.302 80.136ZM78.359 84H76.763L71.961 76.734V84H70.365V74.256H71.961L76.763 81.508V74.256H78.359V84ZM87.3848 79.954C87.3848 80.2433 87.3662 80.5047 87.3288 80.738H81.4348C81.4815 81.354 81.7102 81.8487 82.1208 82.222C82.5315 82.5953 83.0355 82.782 83.6328 82.782C84.4915 82.782 85.0982 82.4227 85.4528 81.704H87.1748C86.9415 82.4133 86.5168 82.9967 85.9008 83.454C85.2942 83.902 84.5382 84.126 83.6328 84.126C82.8955 84.126 82.2328 83.9627 81.6448 83.636C81.0662 83.3 80.6088 82.8333 80.2728 82.236C79.9462 81.6293 79.7828 80.9293 79.7828 80.136C79.7828 79.3427 79.9415 78.6473 80.2588 78.05C80.5855 77.4433 81.0382 76.9767 81.6168 76.65C82.2048 76.3233 82.8768 76.16 83.6328 76.16C84.3608 76.16 85.0095 76.3187 85.5788 76.636C86.1482 76.9533 86.5915 77.4013 86.9088 77.98C87.2262 78.5493 87.3848 79.2073 87.3848 79.954ZM85.7188 79.45C85.7095 78.862 85.4995 78.3907 85.0888 78.036C84.6782 77.6813 84.1695 77.504 83.5628 77.504C83.0122 77.504 82.5408 77.6813 82.1488 78.036C81.7568 78.3813 81.5235 78.8527 81.4488 79.45H85.7188ZM99.1755 76.286L96.7815 84H95.1015L93.5475 78.302L91.9935 84H90.3135L87.9055 76.286H89.5295L91.1395 82.488L92.7775 76.286H94.4435L96.0115 82.46L97.6075 76.286H99.1755Z" fill="#515151"/>
<rect x="22.5" y="79" width="9" height="1.5" fill="#515151"/>
<rect x="28" y="75" width="9" height="1.5" transform="rotate(90 28 75)" fill="#515151"/>
<defs>
<filter id="filter0_b" x="46.0864" y="-20.8836" width="105.83" height="105.607" filterUnits="userSpaceOnUse" color-interpolation-filters="sRGB">
<feFlood flood-opacity="0" result="BackgroundImageFix"/>
<feGaussianBlur in="BackgroundImage" stdDeviation="18.4496"/>
<feComposite in2="SourceAlpha" operator="in" result="effect1_backgroundBlur"/>
<feBlend mode="normal" in="SourceGraphic" in2="effect1_backgroundBlur" result="shape"/>
</filter>
<filter id="filter1_d" x="0.5" y="49" width="181" height="121" filterUnits="userSpaceOnUse" color-interpolation-filters="sRGB">
<feFlood flood-opacity="0" result="BackgroundImageFix"/>
<feColorMatrix in="SourceAlpha" type="matrix" values="0 0 0 0 0 0 0 0 0 0 0 0 0 0 0 0 0 0 127 0"/>
<feOffset dx="30" dy="30"/>
<feGaussianBlur stdDeviation="20"/>
<feColorMatrix type="matrix" values="0 0 0 0 0 0 0 0 0 0 0 0 0 0 0 0 0 0 0.04 0"/>
<feBlend mode="normal" in2="BackgroundImageFix" result="effect1_dropShadow"/>
<feBlend mode="normal" in="SourceGraphic" in2="effect1_dropShadow" result="shape"/>
</filter>
</defs>
</svg>
