<svg width="269" height="252" viewBox="0 0 269 252" fill="none" xmlns="http://www.w3.org/2000/svg">
<g filter="url(#filter0_d)">
<rect x="50.5" y="128" width="165.984" height="53.76" rx="12" fill="#3C50E0"/>
</g>
<rect x="107.62" y="151" width="87.36" height="6" rx="3" fill="white"/>
<g filter="url(#filter1_d)">
<path d="M50.5 38C50.5 26.9543 59.4543 18 70.5 18H198.5C209.546 18 218.5 26.9543 218.5 38V97.456C218.5 108.502 209.546 117.456 198.5 117.456H50.5V38Z" fill="white"/>
</g>
<rect x="77.5" y="39" width="77.28" height="6" rx="3" fill="#E4E4E4"/>
<rect x="77.5" y="56" width="113.568" height="6" rx="3" fill="#E4E4E4"/>
<rect x="77.5" y="73" width="50.4" height="6" rx="3" fill="#E4E4E4"/>
<rect x="77.5" y="90" width="77.28" height="6" rx="3" fill="#E4E4E4"/>
<g filter="url(#filter2_d)">
<rect x="61.9238" y="138.271" width="31.584" height="31.584" rx="8" fill="white"/>
</g>
<g clip-path="url(#clip0)">
<path d="M84.7773 157.609C84.0114 157.609 83.3609 158.112 83.1376 158.805H81.0132V156.217H82.6994C84.795 156.217 86.5 154.512 86.5 152.417C86.5 150.412 84.9404 148.765 82.971 148.626C82.6777 147.663 82.0992 146.796 81.3133 146.153C80.4041 145.41 79.2555 145 78.079 145C77.0223 145 76.008 145.32 75.1459 145.925C74.4118 146.44 73.8327 147.128 73.4545 147.931C72.1752 147.951 71.1272 148.941 71.0151 150.196C69.5886 150.443 68.5 151.689 68.5 153.185C68.5 154.857 69.8604 156.217 71.5325 156.217H73.9868V158.805H71.8624C71.6391 158.112 70.9886 157.609 70.2227 157.609C69.2728 157.609 68.5 158.382 68.5 159.332C68.5 160.282 69.2728 161.055 70.2227 161.055C70.9886 161.055 71.6391 160.552 71.8624 159.859H75.0414V156.217H76.9726V159.638C76.28 159.861 75.7773 160.511 75.7773 161.277C75.7773 162.227 76.5501 163 77.5 163C78.4499 163 79.2226 162.227 79.2226 161.277C79.2226 160.511 78.72 159.861 78.0273 159.638V156.217H79.9586V159.859H83.1376C83.3609 160.552 84.0114 161.055 84.7773 161.055C85.7272 161.055 86.5 160.282 86.5 159.332C86.5 158.382 85.7272 157.609 84.7773 157.609V157.609Z" fill="#FF6C9E"/>
</g>
<defs>
<filter id="filter0_d" x="0.5" y="98" width="265.984" height="153.76" filterUnits="userSpaceOnUse" color-interpolation-filters="sRGB">
<feFlood flood-opacity="0" result="BackgroundImageFix"/>
<feColorMatrix in="SourceAlpha" type="matrix" values="0 0 0 0 0 0 0 0 0 0 0 0 0 0 0 0 0 0 127 0"/>
<feOffset dy="20"/>
<feGaussianBlur stdDeviation="25"/>
<feColorMatrix type="matrix" values="0 0 0 0 0.235294 0 0 0 0 0.313726 0 0 0 0 0.878431 0 0 0 0.1 0"/>
<feBlend mode="normal" in2="BackgroundImageFix" result="effect1_dropShadow"/>
<feBlend mode="normal" in="SourceGraphic" in2="effect1_dropShadow" result="shape"/>
</filter>
<filter id="filter1_d" x="20.5" y="0" width="248" height="179.456" filterUnits="userSpaceOnUse" color-interpolation-filters="sRGB">
<feFlood flood-opacity="0" result="BackgroundImageFix"/>
<feColorMatrix in="SourceAlpha" type="matrix" values="0 0 0 0 0 0 0 0 0 0 0 0 0 0 0 0 0 0 127 0"/>
<feOffset dx="10" dy="22"/>
<feGaussianBlur stdDeviation="20"/>
<feColorMatrix type="matrix" values="0 0 0 0 0 0 0 0 0 0 0 0 0 0 0 0 0 0 0.03 0"/>
<feBlend mode="normal" in2="BackgroundImageFix" result="effect1_dropShadow"/>
<feBlend mode="normal" in="SourceGraphic" in2="effect1_dropShadow" result="shape"/>
</filter>
<filter id="filter2_d" x="37.9238" y="118.271" width="91.584" height="91.584" filterUnits="userSpaceOnUse" color-interpolation-filters="sRGB">
<feFlood flood-opacity="0" result="BackgroundImageFix"/>
<feColorMatrix in="SourceAlpha" type="matrix" values="0 0 0 0 0 0 0 0 0 0 0 0 0 0 0 0 0 0 127 0"/>
<feOffset dx="6" dy="10"/>
<feGaussianBlur stdDeviation="15"/>
<feColorMatrix type="matrix" values="0 0 0 0 0.139757 0 0 0 0 0.211636 0 0 0 0 0.729167 0 0 0 0.6 0"/>
<feBlend mode="normal" in2="BackgroundImageFix" result="effect1_dropShadow"/>
<feBlend mode="normal" in="SourceGraphic" in2="effect1_dropShadow" result="shape"/>
</filter>
<clipPath id="clip0">
<rect width="18" height="18" fill="white" transform="translate(68.5 145)"/>
</clipPath>
</defs>
</svg>
